<svg xmlns="http://www.w3.org/2000/svg" viewBox="0 0 194.929 194.317" version="1.1">
<path d="M51.5645,111.708 L7.85019,125.565 M51.5645,111.708 L81.5645,81.7083 M51.5645,111.708 L52.1645,112.008 M81.5645,81.7083 L111.564,111.708 M81.5645,81.7083 L82.1645,82.0083 M81.5645,81.7083 L82.1645,82.0083 M82.1645,52.0083 L66.2348,5 M81.5645,81.7083 L52.1645,112.008 M81.5645,81.7083 L52.1645,112.008 M82.1645,52.0083 L66.2348,5 M111.564,111.708 L134.363,135.234 M111.564,111.708 L141.564,81.7083 M111.564,111.708 L141.564,81.7083 M112.164,82.0083 L144.831,48.3416 M111.564,111.708 L82.1645,82.0083 M111.564,111.708 L82.1645,82.0083 M112.164,82.0083 L144.831,48.3416 M111.564,111.708 L82.1645,82.0083 M112.164,82.0083 L82.1645,112.008 M111.564,111.708 L82.1645,82.0083 M82.1645,112.008 L48.1645,145.008 M111.564,111.708 L82.1645,82.0083 M82.1645,112.008 L48.1645,145.008 M112.164,82.0083 L144.831,48.3416 M111.564,111.708 L52.1645,112.008 M111.564,111.708 L52.1645,112.008 M112.164,82.0083 L144.831,48.3416 M111.564,111.708 L52.1645,112.008 M82.1645,112.008 L48.1645,145.008 M111.564,111.708 L52.1645,112.008 M82.1645,112.008 L48.1645,145.008 M112.164,82.0083 L144.831,48.3416 M111.564,111.708 L112.164,112.008 M111.564,111.708 L112.164,112.008 M112.164,82.0083 L144.831,48.3416 M111.564,111.708 L112.164,112.008 M112.164,82.0083 L82.1645,112.008 M141.564,81.7083 L82.1645,82.0083 M141.564,81.7083 L82.1645,82.0083 M112.164,82.0083 L144.831,48.3416 M141.564,81.7083 L142.164,82.0083 M141.564,81.7083 L142.164,82.0083 M112.164,82.0083 L144.831,48.3416 M141.564,81.7083 L112.164,112.008 M141.564,81.7083 L112.164,112.008 M112.164,82.0083 L144.831,48.3416 M82.1645,52.0083 L66.2348,5 M82.1645,52.0083 L112.164,82.0083 M82.1645,52.0083 L112.164,82.0083 M82.1645,52.0083 L82.7645,52.3083 M82.1645,52.0083 L82.7645,52.3083 M82.1645,52.0083 L66.2348,5 M82.1645,52.0083 L66.2348,5 M82.1645,52.0083 L66.2348,5 M82.1645,82.0083 L52.1645,112.008 M82.1645,82.0083 L52.1645,112.008 M82.1645,52.0083 L66.2348,5 M82.1645,82.0083 L52.1645,112.008 M112.164,82.0083 L144.831,48.3416 M82.1645,82.0083 L52.1645,112.008 M82.1645,112.008 L48.1645,145.008 M82.1645,82.0083 L52.1645,112.008 M82.1645,112.008 L48.1645,145.008 M112.164,82.0083 L144.831,48.3416 M82.1645,82.0083 L112.164,112.008 M82.1645,82.0083 L112.164,112.008 M112.164,82.0083 L82.1645,112.008 M82.1645,82.0083 L82.7645,82.3083 M82.1645,82.0083 L82.7645,82.3083 M112.164,82.0083 L82.1645,112.008 M82.1645,82.0083 L82.7645,82.3083 M82.1645,112.008 L48.1645,145.008 M82.1645,82.0083 L82.7645,82.3083 M82.1645,112.008 L48.1645,145.008 M82.7645,52.3083 L67.4594,5.61235 M82.1645,82.0083 L82.7645,82.3083 M82.7645,52.3083 L67.4594,5.61235 M82.1645,82.0083 L52.7645,112.308 M82.1645,82.0083 L52.7645,112.308 M82.1645,112.008 L48.1645,145.008 M82.1645,82.0083 L52.7645,112.308 M82.1645,112.008 L48.1645,145.008 M82.7645,52.3083 L67.4594,5.61235 M82.1645,82.0083 L52.7645,112.308 M82.7645,52.3083 L67.4594,5.61235 M112.164,82.0083 L144.831,48.3416 M112.164,82.0083 L82.1645,112.008 M112.164,82.0083 L82.1645,112.008 M112.164,82.0083 L82.1645,112.008 M142.164,82.0083 L112.164,112.008 M112.164,82.0083 L82.1645,112.008 M142.164,82.0083 L82.7645,82.3083 M112.164,82.0083 L82.1645,112.008 M112.164,112.008 L82.7645,82.3083 M112.164,82.0083 L82.1645,112.008 M112.164,82.0083 L82.1645,112.008 M112.164,82.0083 L82.7645,52.3083 M112.164,82.0083 L82.7645,52.3083 M112.164,82.0083 L82.7645,52.3083 M112.164,82.0083 L82.7645,52.3083 M112.164,82.0083 L112.764,82.3083 M112.164,82.0083 L112.764,82.3083 M142.164,82.0083 L112.164,112.008 M112.164,82.0083 L112.764,82.3083 M142.164,82.0083 L82.7645,82.3083 M112.164,82.0083 L112.764,82.3083 M112.164,112.008 L82.7645,82.3083 M112.164,82.0083 L112.764,82.3083 M112.164,82.0083 L144.831,48.3416 M111.564,111.708 L134.363,135.234 M112.164,82.0083 L144.831,48.3416 M112.164,82.0083 L144.831,48.3416 M82.1645,52.0083 L66.2348,5 M112.164,82.0083 L144.831,48.3416 M82.1645,52.0083 L66.2348,5 M112.164,82.0083 L144.831,48.3416 M112.164,82.0083 L144.831,48.3416 M112.164,82.0083 L144.831,48.3416 M112.164,82.0083 L144.831,48.3416 M142.164,82.0083 L112.164,112.008 M142.164,82.0083 L112.164,112.008 M112.164,82.0083 L144.831,48.3416 M142.164,82.0083 L112.164,112.008 M82.1645,112.008 L112.764,82.3083 M142.164,82.0083 L112.164,112.008 M112.164,142.008 L127.47,188.704 M142.164,82.0083 L112.164,112.008 M112.764,82.3083 L146.764,49.3083 M142.164,82.0083 L112.164,112.008 M112.764,82.3083 L146.764,49.3083 M112.164,82.0083 L144.831,48.3416 M142.164,82.0083 L112.164,112.008 M112.764,82.3083 L146.764,49.3083 M112.164,142.008 L127.47,188.704 M142.164,82.0083 L82.7645,82.3083 M142.164,82.0083 L82.7645,82.3083 M82.1645,112.008 L112.764,82.3083 M142.164,82.0083 L142.764,82.3083 M142.164,82.0083 L142.764,82.3083 M112.764,82.3083 L146.764,49.3083 M142.164,82.0083 L112.764,112.308 M142.164,82.0083 L112.764,112.308 M112.164,142.008 L127.47,188.704 M142.164,82.0083 L112.764,112.308 M112.764,82.3083 L146.764,49.3083 M142.164,82.0083 L112.764,112.308 M112.764,82.3083 L146.764,49.3083 M112.164,142.008 L127.47,188.704 M52.1645,112.008 L5,127.47 M52.1645,112.008 L52.7645,112.308 M52.1645,112.008 L52.7645,112.308 M82.1645,112.008 L48.1645,145.008 M52.1645,112.008 L5,127.47 M51.5645,111.708 L7.85019,125.565 M52.1645,112.008 L5,127.47 M111.564,111.708 L134.363,135.234 M82.1645,112.008 L48.1645,145.008 M82.1645,112.008 L112.164,142.008 M82.1645,112.008 L112.164,142.008 M112.164,112.008 L144.831,145.008 M82.1645,112.008 L82.7645,52.3083 M82.1645,112.008 L82.7645,52.3083 M82.1645,112.008 L82.7645,52.3083 M82.1645,112.008 L82.7645,52.3083 M82.1645,112.008 L112.764,82.3083 M82.1645,112.008 L112.764,82.3083 M112.164,112.008 L82.7645,82.3083 M82.1645,112.008 L112.764,82.3083 M112.164,112.008 L52.7645,112.308 M82.1645,112.008 L112.764,82.3083 M82.7645,82.3083 L52.7645,112.308 M82.1645,112.008 L82.7645,112.308 M82.1645,112.008 L82.7645,112.308 M112.164,112.008 L144.831,145.008 M82.1645,112.008 L82.7645,112.308 M112.164,112.008 L82.7645,82.3083 M82.1645,112.008 L82.7645,112.308 M112.164,112.008 L52.7645,112.308 M82.1645,112.008 L82.7645,112.308 M82.7645,82.3083 L52.7645,112.308 M82.1645,112.008 L48.1645,145.008 M111.564,111.708 L134.363,135.234 M82.1645,112.008 L48.1645,145.008 M112.164,82.0083 L144.831,48.3416 M82.1645,112.008 L48.1645,145.008 M112.164,82.0083 L144.831,48.3416 M111.564,111.708 L134.363,135.234 M82.1645,112.008 L48.1645,145.008 M52.1645,112.008 L5,127.47 M82.1645,112.008 L48.1645,145.008 M52.1645,112.008 L5,127.47 M111.564,111.708 L134.363,135.234 M82.1645,112.008 L48.1645,145.008 M112.164,112.008 L144.831,145.008 M82.1645,112.008 L48.1645,145.008 M112.164,112.008 L144.831,145.008 M111.564,111.708 L134.363,135.234 M82.1645,112.008 L48.1645,145.008 M112.164,112.008 L144.831,145.008 M112.164,82.0083 L144.831,48.3416 M82.1645,112.008 L48.1645,145.008 M112.164,112.008 L144.831,145.008 M112.164,82.0083 L144.831,48.3416 M111.564,111.708 L134.363,135.234 M82.1645,112.008 L48.1645,145.008 M82.7645,52.3083 L67.4594,5.61235 M82.1645,112.008 L48.1645,145.008 M52.7645,112.308 L6.2247,128.082 M82.1645,112.008 L48.1645,145.008 M52.7645,112.308 L6.2247,128.082 M52.1645,112.008 L5,127.47 M82.1645,112.008 L48.1645,145.008 M52.7645,112.308 L6.2247,128.082 M112.164,112.008 L144.831,145.008 M112.164,112.008 L144.831,145.008 M112.164,112.008 L82.7645,82.3083 M112.164,112.008 L82.7645,82.3083 M112.764,82.3083 L82.7645,112.308 M112.164,112.008 L52.7645,112.308 M112.164,112.008 L52.7645,112.308 M112.764,82.3083 L82.7645,112.308 M112.164,112.008 L112.764,112.308 M112.164,112.008 L112.764,112.308 M112.164,142.008 L127.47,188.704 M112.164,112.008 L112.764,112.308 M112.764,82.3083 L146.764,49.3083 M112.164,112.008 L112.764,112.308 M112.764,82.3083 L82.7645,112.308 M112.164,112.008 L112.764,112.308 M112.764,82.3083 L146.764,49.3083 M112.164,142.008 L127.47,188.704 M112.164,112.008 L144.831,145.008 M111.564,111.708 L134.363,135.234 M112.164,112.008 L144.831,145.008 M112.164,82.0083 L144.831,48.3416 M112.164,112.008 L144.831,145.008 M112.164,82.0083 L144.831,48.3416 M111.564,111.708 L134.363,135.234 M112.164,142.008 L127.47,188.704 M112.164,142.008 L112.764,82.3083 M112.164,142.008 L112.764,82.3083 M112.164,112.008 L144.831,145.008 M112.164,142.008 L112.764,82.3083 M112.764,112.308 L146.764,145.975 M112.164,142.008 L112.764,82.3083 M112.764,112.308 L146.764,145.975 M112.164,112.008 L144.831,145.008 M112.164,142.008 L82.7645,112.308 M112.164,142.008 L82.7645,112.308 M112.164,112.008 L144.831,145.008 M112.164,142.008 L82.7645,112.308 M112.764,112.308 L146.764,145.975 M112.164,142.008 L82.7645,112.308 M112.764,112.308 L146.764,145.975 M112.164,112.008 L144.831,145.008 M112.164,142.008 L112.764,142.308 M112.164,142.008 L112.764,142.308 M112.764,112.308 L146.764,145.975 M112.164,142.008 L127.47,188.704 M82.1645,112.008 L48.1645,145.008 M112.164,142.008 L127.47,188.704 M82.1645,112.008 L48.1645,145.008 M112.164,112.008 L144.831,145.008 M112.164,142.008 L127.47,188.704 M112.164,112.008 L144.831,145.008 M112.164,142.008 L127.47,188.704 M112.764,112.308 L146.764,145.975 M112.164,142.008 L127.47,188.704 M112.764,112.308 L146.764,145.975 M112.164,112.008 L144.831,145.008 M82.7645,52.3083 L67.4594,5.61235 M82.7645,52.3083 L112.764,82.3083 M82.7645,52.3083 L112.764,82.3083 M82.7645,52.3083 L67.4594,5.61235 M82.1645,52.0083 L66.2348,5 M82.7645,52.3083 L67.4594,5.61235 M82.1645,52.0083 L66.2348,5 M82.7645,52.3083 L67.4594,5.61235 M82.7645,52.3083 L67.4594,5.61235 M82.7645,52.3083 L67.4594,5.61235 M82.7645,52.3083 L67.4594,5.61235 M112.764,82.3083 L146.764,49.3083 M82.7645,52.3083 L67.4594,5.61235 M112.764,82.3083 L146.764,49.3083 M82.7645,82.3083 L52.7645,112.308 M82.7645,82.3083 L52.7645,112.308 M82.1645,112.008 L48.1645,145.008 M82.7645,82.3083 L52.7645,112.308 M82.1645,112.008 L48.1645,145.008 M82.7645,52.3083 L67.4594,5.61235 M82.7645,82.3083 L52.7645,112.308 M82.7645,52.3083 L67.4594,5.61235 M82.7645,82.3083 L52.7645,112.308 M112.764,82.3083 L82.7645,112.308 M82.7645,82.3083 L52.7645,112.308 M82.7645,112.308 L50.0978,145.975 M82.7645,82.3083 L52.7645,112.308 M82.7645,112.308 L50.0978,145.975 M82.1645,112.008 L48.1645,145.008 M82.7645,82.3083 L112.764,112.308 M82.7645,82.3083 L112.764,112.308 M112.764,82.3083 L82.7645,112.308 M82.7645,82.3083 L53.3645,112.608 M82.7645,82.3083 L53.3645,112.608 M82.7645,112.308 L50.0978,145.975 M82.7645,82.3083 L83.3645,82.6083 M82.7645,82.3083 L83.3645,82.6083 M112.764,82.3083 L82.7645,112.308 M82.7645,82.3083 L83.3645,82.6083 M82.7645,112.308 L50.0978,145.975 M112.164,82.0083 L144.831,48.3416 M112.164,82.0083 L144.831,48.3416 M112.764,82.3083 L146.764,49.3083 M112.764,82.3083 L146.764,49.3083 M112.164,82.0083 L144.831,48.3416 M112.764,82.3083 L146.764,49.3083 M112.164,82.0083 L144.831,48.3416 M112.764,82.3083 L146.764,49.3083 M112.764,82.3083 L146.764,49.3083 M112.764,82.3083 L82.7645,112.308 M112.764,82.3083 L82.7645,112.308 M112.164,112.008 L144.831,145.008 M112.764,82.3083 L82.7645,112.308 M112.764,112.308 L146.764,145.975 M112.764,82.3083 L82.7645,112.308 M112.764,112.308 L83.3645,82.6083 M112.764,82.3083 L82.7645,112.308 M112.764,112.308 L146.764,145.975 M112.164,112.008 L144.831,145.008 M112.764,82.3083 L146.764,49.3083 M112.164,82.0083 L144.831,48.3416 M112.764,82.3083 L146.764,49.3083 M112.164,82.0083 L144.831,48.3416 M112.764,82.3083 L146.764,49.3083 M112.764,82.3083 L146.764,49.3083 M112.164,142.008 L127.47,188.704 M112.764,82.3083 L146.764,49.3083 M112.764,82.3083 L146.764,49.3083 M112.764,82.3083 L146.764,49.3083 M112.764,82.3083 L146.764,49.3083 M82.7645,112.308 L50.0978,145.975 M112.764,82.3083 L146.764,49.3083 M82.7645,112.308 L50.0978,145.975 M112.764,82.3083 L146.764,49.3083 M112.764,82.3083 L146.764,49.3083 M112.764,82.3083 L146.764,49.3083 M112.764,82.3083 L146.764,49.3083 M82.7645,112.308 L50.0978,145.975 M112.764,82.3083 L146.764,49.3083 M82.7645,112.308 L50.0978,145.975 M142.764,82.3083 L112.764,112.308 M142.764,82.3083 L112.764,112.308 M112.764,82.3083 L146.764,49.3083 M142.764,82.3083 L112.764,112.308 M112.764,82.3083 L146.764,49.3083 M82.7645,112.308 L50.0978,145.975 M142.764,82.3083 L112.764,112.308 M82.7645,112.308 L50.0978,145.975 M142.764,82.3083 L112.764,112.308 M112.764,142.308 L128.694,189.317 M142.764,82.3083 L83.3645,82.6083 M142.764,82.3083 L83.3645,82.6083 M112.764,82.3083 L146.764,49.3083 M142.764,82.3083 L83.3645,82.6083 M112.764,82.3083 L146.764,49.3083 M82.7645,112.308 L50.0978,145.975 M142.764,82.3083 L83.3645,82.6083 M82.7645,112.308 L50.0978,145.975 M142.764,82.3083 L113.364,112.608 M142.764,82.3083 L113.364,112.608 M112.764,142.308 L128.694,189.317 M142.764,82.3083 L143.364,82.6083 M52.7645,112.308 L6.2247,128.082 M52.7645,112.308 L53.3645,112.608 M52.7645,112.308 L53.3645,112.608 M82.7645,112.308 L50.0978,145.975 M52.7645,112.308 L6.2247,128.082 M52.1645,112.008 L5,127.47 M52.7645,112.308 L6.2247,128.082 M112.164,112.008 L144.831,145.008 M82.7645,112.308 L50.0978,145.975 M82.7645,112.308 L112.764,142.308 M82.7645,112.308 L112.764,142.308 M112.764,112.308 L146.764,145.975 M82.7645,112.308 L50.0978,145.975 M82.1645,112.008 L48.1645,145.008 M82.7645,112.308 L50.0978,145.975 M82.1645,112.008 L48.1645,145.008 M112.164,112.008 L144.831,145.008 M82.7645,112.308 L50.0978,145.975 M82.1645,112.008 L48.1645,145.008 M52.7645,112.308 L6.2247,128.082 M82.7645,112.308 L50.0978,145.975 M82.1645,112.008 L48.1645,145.008 M52.7645,112.308 L6.2247,128.082 M112.164,112.008 L144.831,145.008 M82.7645,112.308 L50.0978,145.975 M112.164,112.008 L144.831,145.008 M82.7645,112.308 L50.0978,145.975 M82.7645,112.308 L50.0978,145.975 M52.7645,112.308 L6.2247,128.082 M82.7645,112.308 L50.0978,145.975 M52.7645,112.308 L6.2247,128.082 M112.164,112.008 L144.831,145.008 M82.7645,112.308 L50.0978,145.975 M112.764,112.308 L146.764,145.975 M82.7645,112.308 L50.0978,145.975 M112.764,112.308 L146.764,145.975 M112.764,142.308 L128.694,189.317 M82.7645,112.308 L50.0978,145.975 M112.764,142.308 L128.694,189.317 M82.7645,112.308 L50.0978,145.975 M53.3645,112.608 L11.3645,127.323 M82.7645,112.308 L50.0978,145.975 M53.3645,112.608 L11.3645,127.323 M52.7645,112.308 L6.2247,128.082 M82.7645,112.308 L50.0978,145.975 M53.3645,112.608 L11.3645,127.323 M112.764,112.308 L146.764,145.975 M112.764,112.308 L146.764,145.975 M112.764,112.308 L53.3645,112.608 M112.764,112.308 L53.3645,112.608 M82.7645,112.308 L50.0978,145.975 M112.764,112.308 L83.3645,82.6083 M112.764,112.308 L83.3645,82.6083 M112.764,82.3083 L146.764,49.3083 M112.764,112.308 L83.3645,82.6083 M112.764,82.3083 L146.764,49.3083 M82.7645,112.308 L50.0978,145.975 M112.764,112.308 L83.3645,82.6083 M82.7645,112.308 L50.0978,145.975 M112.764,112.308 L113.364,112.608 M112.764,112.308 L113.364,112.608 M112.764,142.308 L128.694,189.317 M112.764,112.308 L146.764,145.975 M112.164,112.008 L144.831,145.008 M112.764,112.308 L146.764,145.975 M112.164,142.008 L127.47,188.704 M112.764,112.308 L146.764,145.975 M112.764,142.308 L128.694,189.317 M112.764,112.308 L146.764,145.975 M112.764,142.308 L128.694,189.317 M112.164,142.008 L127.47,188.704 M112.764,142.308 L128.694,189.317 M112.764,142.308 L128.694,189.317 M112.164,142.008 L127.47,188.704 M112.764,142.308 L128.694,189.317 M112.764,112.308 L146.764,145.975 M112.764,142.308 L128.694,189.317 M113.364,112.608 L139.073,137.589 M112.764,142.308 L128.694,189.317 M113.364,112.608 L139.073,137.589 M112.764,112.308 L146.764,145.975 M53.3645,112.608 L11.3645,127.323 M53.3645,112.608 L83.3645,82.6083 M53.3645,112.608 L83.3645,82.6083 M82.7645,112.308 L50.0978,145.975 M53.3645,112.608 L11.3645,127.323 M52.7645,112.308 L6.2247,128.082 M53.3645,112.608 L11.3645,127.323 M112.764,112.308 L146.764,145.975 M83.3645,82.6083 L113.364,112.608 M82.7645,112.308 L50.0978,145.975 M82.7645,112.308 L50.0978,145.975 M113.364,112.608 L139.073,137.589 M113.364,112.608 L143.364,82.6083 M113.364,112.608 L139.073,137.589 M112.764,112.308 L146.764,145.975" stroke="black" fill="none" stroke-width="0.2"/>
<path d="M81.5645,81.7083 L55.8557,56.7271 M141.564,81.7083 L183.564,66.994 M82.1645,82.0083 L48.1645,48.3416 M82.1645,82.0083 L48.1645,48.3416 M81.5645,81.7083 L55.8557,56.7271 M82.1645,82.0083 L48.1645,48.3416 M82.1645,82.0083 L48.1645,48.3416 M81.5645,81.7083 L55.8557,56.7271 M82.1645,82.0083 L48.1645,48.3416 M82.1645,82.0083 L48.1645,48.3416 M81.5645,81.7083 L55.8557,56.7271 M82.1645,82.0083 L48.1645,48.3416 M141.564,81.7083 L183.564,66.994 M82.1645,82.0083 L48.1645,48.3416 M82.7645,82.3083 L50.0978,49.3083 M82.7645,82.3083 L50.0978,49.3083 M82.1645,82.0083 L48.1645,48.3416 M82.1645,82.0083 L48.1645,48.3416 M82.7645,82.3083 L50.0978,49.3083 M82.7645,82.3083 L50.0978,49.3083 M82.1645,82.0083 L48.1645,48.3416 M82.7645,82.3083 L50.0978,49.3083 M141.564,81.7083 L183.564,66.994 M82.1645,82.0083 L48.1645,48.3416 M82.1645,82.0083 L48.1645,48.3416 M82.1645,82.0083 L48.1645,48.3416 M141.564,81.7083 L183.564,66.994 M142.164,82.0083 L188.704,66.2348 M142.164,82.0083 L188.704,66.2348 M141.564,81.7083 L183.564,66.994 M142.164,82.0083 L188.704,66.2348 M142.164,82.0083 L188.704,66.2348 M141.564,81.7083 L183.564,66.994 M82.1645,82.0083 L48.1645,48.3416 M82.7645,82.3083 L50.0978,49.3083 M82.7645,82.3083 L50.0978,49.3083 M82.1645,82.0083 L48.1645,48.3416 M82.7645,82.3083 L50.0978,49.3083 M82.1645,82.0083 L48.1645,48.3416 M82.1645,82.0083 L48.1645,48.3416 M82.7645,82.3083 L50.0978,49.3083 M82.7645,82.3083 L50.0978,49.3083 M82.1645,82.0083 L48.1645,48.3416 M82.7645,82.3083 L50.0978,49.3083 M82.7645,82.3083 L50.0978,49.3083 M82.7645,82.3083 L50.0978,49.3083 M82.1645,82.0083 L48.1645,48.3416 M82.7645,82.3083 L50.0978,49.3083 M82.7645,82.3083 L50.0978,49.3083 M142.164,82.0083 L188.704,66.2348 M82.7645,82.3083 L50.0978,49.3083 M142.164,82.0083 L188.704,66.2348 M82.7645,82.3083 L50.0978,49.3083 M82.7645,82.3083 L50.0978,49.3083 M82.7645,82.3083 L50.0978,49.3083 M142.164,82.0083 L188.704,66.2348 M82.7645,82.3083 L50.0978,49.3083 M142.164,82.0083 L188.704,66.2348 M142.164,82.0083 L188.704,66.2348 M142.164,82.0083 L188.704,66.2348 M82.7645,82.3083 L50.0978,49.3083 M142.764,82.3083 L189.929,66.8471 M142.764,82.3083 L189.929,66.8471 M142.164,82.0083 L188.704,66.2348 M82.7645,82.3083 L50.0978,49.3083 M83.3645,82.6083 L60.5661,59.0823 M83.3645,82.6083 L60.5661,59.0823 M82.7645,82.3083 L50.0978,49.3083 M83.3645,82.6083 L60.5661,59.0823 M142.764,82.3083 L189.929,66.8471 M83.3645,82.6083 L60.5661,59.0823 M83.3645,82.6083 L60.5661,59.0823 M82.7645,82.3083 L50.0978,49.3083 M142.764,82.3083 L189.929,66.8471 M142.764,82.3083 L189.929,66.8471 M142.164,82.0083 L188.704,66.2348 M82.7645,82.3083 L50.0978,49.3083 M83.3645,82.6083 L60.5661,59.0823 M83.3645,82.6083 L60.5661,59.0823 M82.7645,82.3083 L50.0978,49.3083 M83.3645,82.6083 L60.5661,59.0823 M142.764,82.3083 L189.929,66.8471 M83.3645,82.6083 L60.5661,59.0823 M83.3645,82.6083 L60.5661,59.0823 M82.7645,82.3083 L50.0978,49.3083 M143.364,82.6083 L187.079,68.7512 M143.364,82.6083 L187.079,68.7512 M142.764,82.3083 L189.929,66.8471" stroke="red" fill="none" stroke-width="0.2"/>
<circle cx="51.5645" cy="111.708" r="0.5" stroke="none" fill="black"/>
<circle cx="81.5645" cy="81.7083" r="0.5" stroke="none" fill="black"/>
<circle cx="111.564" cy="111.708" r="0.5" stroke="none" fill="black"/>
<circle cx="141.564" cy="81.7083" r="0.5" stroke="none" fill="black"/>
<circle cx="82.1645" cy="52.0083" r="0.5" stroke="none" fill="black"/>
<circle cx="82.1645" cy="82.0083" r="0.5" stroke="none" fill="black"/>
<circle cx="112.164" cy="82.0083" r="0.5" stroke="none" fill="black"/>
<circle cx="142.164" cy="82.0083" r="0.5" stroke="none" fill="black"/>
<circle cx="52.1645" cy="112.008" r="0.5" stroke="none" fill="black"/>
<circle cx="82.1645" cy="112.008" r="0.5" stroke="none" fill="black"/>
<circle cx="112.164" cy="112.008" r="0.5" stroke="none" fill="black"/>
<circle cx="112.164" cy="142.008" r="0.5" stroke="none" fill="black"/>
<circle cx="82.7645" cy="52.3083" r="0.5" stroke="none" fill="black"/>
<circle cx="82.7645" cy="82.3083" r="0.5" stroke="none" fill="black"/>
<circle cx="112.764" cy="82.3083" r="0.5" stroke="none" fill="black"/>
<circle cx="142.764" cy="82.3083" r="0.5" stroke="none" fill="black"/>
<circle cx="52.7645" cy="112.308" r="0.5" stroke="none" fill="black"/>
<circle cx="82.7645" cy="112.308" r="0.5" stroke="none" fill="black"/>
<circle cx="112.764" cy="112.308" r="0.5" stroke="none" fill="black"/>
<circle cx="112.764" cy="142.308" r="0.5" stroke="none" fill="black"/>
<circle cx="53.3645" cy="112.608" r="0.5" stroke="none" fill="black"/>
<circle cx="83.3645" cy="82.6083" r="0.5" stroke="none" fill="black"/>
<circle cx="113.364" cy="112.608" r="0.5" stroke="none" fill="black"/>
<circle cx="143.364" cy="82.6083" r="0.5" stroke="none" fill="black"/>
</svg>